# xmcd
#
# Track frame offsets:
#	150
#	13408
#	29177
#	43174
#	75605
#	88056
#	103762
#	112487
#	124423
#	137279
#	148839
#	166040
#	179129
#	196313
#	213825
#	225790
#
# Disc length: 3205 seconds
#
# Revision: 1
# Processed by: cddbd v1.5.1PL2 Copyright (c) Steve Scherf et al.
# Submitted via: audiograbber 1.83.01
#
DISCID=ea0c8310
DTITLE=Various Artist - The Best Of Soul Guys
DYEAR=2005
DGENRE=Soul
TTITLE0=Sam and Dave - Soul Man
TTITLE1=Eddie Floyd - Knock on Wood
TTITLE2=Aaron Neville - Tell It Like It Is
TTITLE3=The Temptations - Papa Was A Rolling Stone
TTITLE4=Lee Dorsey - Working In The Coal Mine
TTITLE5=Al Wilson - Show And Tell
TTITLE6=The Drifters - Saturday Night At The Movies
TTITLE7=Sam and Dave - Soul Sister, Brown Sugar
TTITLE8=Isaac Hayes - A Few More Kisses To Go
TTITLE9=Ernie K-Doe - Mother In Law
TTITLE10=Marvin Gaye - I Heard It Through The Grapevine (Live)
TTITLE11=Percy Sledge - When A Man Loves A Woman
TTITLE12=James Brown - Please, Please, Please (Live)
TTITLE13=Curtis Mayfield - Superfly
TTITLE14=Joe Simon - The Chokin' Kind
TTITLE15=The Four Tops - When She Was My Girl
EXTD=Distributed by Rolled Gold International\n5051035111525\nRGCD1115
EXTT0=
EXTT1=
EXTT2=
EXTT3=
EXTT4=
EXTT5=
EXTT6=
EXTT7=
EXTT8=
EXTT9=
EXTT10=
EXTT11=
EXTT12=
EXTT13=
EXTT14=
EXTT15=
PLAYORDER=
